<?xml version="1.0" standalone="no"?>
<!DOCTYPE svg PUBLIC "-//W3C//DTD SVG 20010904//EN"
 "http://www.w3.org/TR/2001/REC-SVG-20010904/DTD/svg10.dtd">
<svg version="1.0" xmlns="http://www.w3.org/2000/svg"
 width="140.000000pt" height="63.000000pt" viewBox="0 0 140.000000 63.000000"
 preserveAspectRatio="xMidYMid meet">

<g transform="translate(0.000000,63.000000) scale(0.100000,-0.100000)"
fill="#000000" stroke="none">
<path d="M553 623 c-25 -9 -11 -193 14 -193 11 0 14 9 11 34 -3 29 0 35 24 44
25 9 28 15 28 56 0 35 -5 48 -19 56 -21 11 -38 12 -58 3z m47 -58 c0 -24 -5
-35 -15 -35 -10 0 -15 11 -15 35 0 24 5 35 15 35 10 0 15 -11 15 -35z"/>
<path d="M710 531 c0 -83 3 -101 15 -101 12 0 15 15 16 68 l1 67 17 -65 c12
-44 22 -66 34 -68 15 -3 17 7 19 77 1 45 2 89 2 98 1 9 -5 18 -11 21 -10 3
-13 -12 -13 -54 0 -66 -7 -66 -24 3 -9 37 -17 49 -34 51 -21 3 -22 1 -22 -97z"/>
<path d="M911 536 c-12 -45 -24 -89 -27 -98 -4 -12 0 -18 10 -18 9 0 16 7 16
15 0 22 37 18 43 -5 3 -11 10 -20 16 -20 7 0 11 34 11 99 0 96 -1 99 -24 103
-22 4 -25 -1 -45 -76z m39 -16 c0 -28 -4 -40 -14 -40 -11 0 -12 8 -4 40 6 22
12 40 14 40 2 0 4 -18 4 -40z"/>
<path d="M370 595 c-17 -21 -4 -138 19 -166 13 -17 24 -20 43 -16 14 4 28 13
31 21 6 15 -9 152 -18 167 -10 14 -61 11 -75 -6z m54 -42 c17 -93 18 -113 2
-113 -21 0 -24 7 -32 78 -5 52 -4 62 9 62 9 0 18 -12 21 -27z"/>
<path d="M1076 503 c-19 -102 -19 -113 -7 -113 5 0 15 25 21 55 6 30 14 55 17
55 3 0 3 -26 1 -57 -4 -76 17 -78 45 -5 25 65 31 63 13 -6 -9 -33 -11 -54 -4
-58 14 -9 14 -7 37 83 26 101 26 113 2 113 -15 0 -25 -15 -42 -60 -12 -33 -24
-60 -26 -60 -2 0 -3 30 -2 68 2 61 1 67 -18 70 -19 3 -22 -6 -37 -85z"/>
<path d="M241 543 c12 -52 12 -53 -10 -53 -15 0 -21 10 -26 40 -4 25 -12 40
-21 40 -8 0 -14 -7 -14 -15 0 -30 43 -185 51 -185 15 0 18 17 9 51 -7 24 -6
35 3 41 21 13 25 9 32 -32 4 -26 12 -40 22 -40 12 0 14 7 9 30 -3 17 -11 59
-18 95 -9 50 -15 65 -29 65 -14 0 -16 -5 -8 -37z"/>
<path d="M1287 448 c-15 -51 -23 -96 -19 -100 13 -13 72 -21 72 -10 0 6 -9 14
-20 17 -34 11 -20 70 15 63 10 -2 20 3 22 10 3 6 -2 12 -11 12 -20 0 -26 12
-19 39 5 18 10 21 33 16 35 -8 50 12 18 24 -67 25 -62 29 -91 -71z"/>
<path d="M10 515 c-20 -24 -3 -63 39 -90 47 -29 57 -43 41 -58 -9 -9 -15 -7
-25 7 -14 18 -15 18 -21 1 -5 -12 -1 -23 11 -31 25 -19 39 -18 59 5 26 29 11
68 -34 91 -36 18 -57 46 -45 59 3 3 15 0 26 -7 16 -10 20 -10 25 2 3 8 3 20
-1 26 -9 15 -61 12 -75 -5z"/>
<path d="M407 313 c-11 -10 -8 -33 3 -33 6 0 10 7 10 15 0 8 5 15 10 15 15 0
12 -20 -10 -67 -14 -31 -23 -41 -34 -37 -11 4 -16 0 -16 -10 0 -25 29 -19 42
9 14 32 37 33 31 1 l-5 -23 101 0 c86 1 101 3 101 17 0 9 7 25 15 36 13 18 14
17 15 -17 l0 -36 65 0 c64 1 66 2 73 31 11 43 32 46 25 3 l-5 -34 41 0 c37 0
55 10 32 19 -15 5 0 58 16 58 12 0 14 -8 9 -39 l-6 -39 50 0 c28 0 53 5 56 10
3 5 -2 8 -12 6 -22 -3 -30 28 -14 52 9 13 11 13 20 0 8 -13 10 -12 10 3 0 33
-44 17 -55 -20 -13 -44 -32 -43 -27 2 4 30 1 35 -16 35 -11 0 -23 6 -25 13 -7
17 -27 -11 -27 -39 0 -11 -7 -29 -15 -40 -15 -18 -15 -16 -10 23 l6 41 -35 0
c-33 0 -36 -2 -36 -29 0 -27 -34 -59 -48 -45 -13 14 -11 45 5 57 15 12 16 11
11 -9 -4 -12 -2 -20 3 -16 14 8 11 44 -4 44 -18 0 -47 -32 -47 -53 0 -9 -5
-19 -11 -23 -7 -4 -10 6 -8 32 3 32 0 39 -14 38 -12 -1 -17 6 -17 22 0 43 -18
25 -25 -25 -4 -28 -14 -56 -22 -63 -14 -11 -15 -9 -11 17 4 17 8 40 11 53 6
24 -7 30 -20 10 -8 -14 -9 -19 -11 -55 -1 -13 -9 -23 -17 -23 -18 0 -17 -3 -6
38 7 24 7 32 -2 29 -6 -2 -15 -18 -19 -35 -12 -45 -32 -42 -23 4 5 28 3 35 -7
32 -13 -5 -14 -9 -17 -48 0 -11 -8 -20 -16 -20 -8 0 -15 1 -15 3 0 1 7 27 15
57 8 30 15 56 15 58 0 5 -77 1 -83 -5z m49 -48 c-4 -14 -10 -25 -15 -25 -5 0
-4 16 2 36 12 39 23 29 13 -11z"/>
<path d="M946 301 c-4 -7 -5 -15 -2 -18 9 -9 19 4 14 18 -4 11 -6 11 -12 0z"/>
<path d="M664 53 c-5 -19 -2 -30 11 -40 23 -16 27 -16 50 0 13 10 16 21 11 40
-5 22 -12 27 -36 27 -24 0 -31 -5 -36 -27z m51 -14 c2 -8 -5 -15 -15 -15 -15
0 -17 6 -11 34 2 10 25 -6 26 -19z"/>
</g>
</svg>
